<svg xmlns="http://www.w3.org/2000/svg" xmlns:xlink="http://www.w3.org/1999/xlink" width="288.291" height="44.398" viewBox="0 0 288.291 44.398">
  <defs>
    <clipPath id="clip-path">
      <path id="Path_1892" data-name="Path 1892" d="M0-91.131H48.25v-44.4H0Z" transform="translate(0 135.529)" fill="#85cacd"/>
    </clipPath>
  </defs>
  <g id="Group_1261" data-name="Group 1261" transform="translate(-63.371 -59.292)">
    <g id="Group_1173" data-name="Group 1173" transform="translate(132.579 59.874)">
      <path id="Path_1146" data-name="Path 1146" d="M820.229,995.9h.026v-.062h7.423v33.858h18.45v7.217h-.039v.044h-25.86Z" transform="translate(-685.434 -993.474)" fill="#85cacd"/>
      <path id="Path_1147" data-name="Path 1147" d="M742.42,989.932h.013v-.064h7.26v24.292l11.243-13.028h9.091l-.053.06H770l-10.884,12.223,11.446,19.873h-.05l.025.044h-8.548l-8.064-14.427-4.233,4.968v9.416h-.015v.044H742.42Z" transform="translate(-638.229 -989.855)" fill="#85cacd"/>
      <path id="Path_1152" data-name="Path 1152" d="M507.126,1003.11H496.051v33.84h-7.419v-.044h-.03v-33.8H477.555v-.058h-.034v-7.219h29.585v.063h.02Z" transform="translate(-477.521 -993.474)" fill="#85cacd"/>
      <path id="Path_1151" data-name="Path 1151" d="M586.927,1033.33H579.67v-.044h-.011v-19.951a9.224,9.224,0,0,0-.189-1.923,4.615,4.615,0,0,0-4.907-3.89c-3.6,0-6.345,2.523-6.345,7.685v18.122h-7.258v-.044h-.02V989.864h7.26v.064h.017v14.588a10.441,10.441,0,0,1,8.267-3.8c5.807,0,9.458,3.076,10.265,8.271a14.919,14.919,0,0,1,.178,2.344Z" transform="translate(-528.13 -989.852)" fill="#85cacd"/>
      <path id="Path_1149" data-name="Path 1149" d="M644.78,1050.707h-7.258v-.044h-.007v-32.154h7.262v.059h0Z" transform="translate(-574.585 -1007.23)" fill="#85cacd"/>
      <path id="Path_1150" data-name="Path 1150" d="M644.78,997.493h-7.258v-.058h-.007v-7.569h7.262v.062h0Z" transform="translate(-574.585 -989.854)" fill="#85cacd"/>
      <path id="Path_1148" data-name="Path 1148" d="M692.1,1050.032h-.012v.044h-7.258v-19.941c0-3.812-1.882-5.867-5.107-5.867-3.379,0-6,2.217-6.313,6.748-.018.287-.03.581-.03.886v18.13h0v.044h-7.258v-.044h0v-32.155h7.153v3.4a10.353,10.353,0,0,1,8.393-3.814c6.615,0,10.434,3.99,10.434,10.561Z" transform="translate(-591.941 -1006.598)" fill="#85cacd"/>
      <path id="Path_1143" data-name="Path 1143" d="M906.524,1035.192l-2.85.47c-1.559.294-3.441.587-4.568.82a6.445,6.445,0,0,0-3.121,1.231,3.3,3.3,0,0,0-1.127,2.642c0,.938.32,3.87,4.352,3.87a7.761,7.761,0,0,0,5.593-2.169,7.408,7.408,0,0,0,1.722-5.163Zm0-6.041v-1.114c0-2.523-.968-4.165-5.322-4.165-5.431,0-5.593,3.286-5.593,4.4h-6.988c0-4.752,1.828-10.852,12.8-10.852,10.483,0,12.367,5.689,12.367,10.323v17.714a25.563,25.563,0,0,0,.159,3.167l.216,1.35H906.74v-3.225c-2.1,2.288-5,3.636-9.14,3.636-5.809,0-10.217-3.695-10.217-10.089,0-7.392,6.4-8.974,8.981-9.445Z" transform="translate(-726.174 -1006.57)" fill="#85cacd"/>
      <path id="Path_1144" data-name="Path 1144" d="M969.852,1017.168c0,8.21,3.064,9.911,6.935,9.911s6.775-2.873,6.775-9.911-2.9-9.913-6.775-9.913-6.935,1.7-6.935,9.913m-7.1,16.072v-43.4h7.259v14.721a10.141,10.141,0,0,1,8.011-3.871c8.172,0,12.958,5.865,12.958,16.483s-5.324,16.483-13.121,16.483c-3.225,0-6.344-1.35-7.848-3.636v3.225Z" transform="translate(-771.899 -989.835)" fill="#85cacd"/>
    </g>
    <g id="Group_1178" data-name="Group 1178" transform="translate(63.371 59.292)" clip-path="url(#clip-path)">
      <g id="Group_1174" data-name="Group 1174" transform="translate(0 0)">
        <path id="Path_1888" data-name="Path 1888" d="M-.7-22.5A1.162,1.162,0,0,1-.99-23.666L1.4-31.957a2.18,2.18,0,0,1,2.049-1.5H9.991a1.137,1.137,0,0,1,.936.35,1.244,1.244,0,0,1,.222,1.093L8.89-23.746a2.143,2.143,0,0,1-2.026,1.512H.152A1.206,1.206,0,0,1-.7-22.5" transform="translate(1.038 33.462)" fill="#85cacd"/>
      </g>
      <g id="Group_1175" data-name="Group 1175" transform="translate(4.608 0.001)">
        <path id="Path_1889" data-name="Path 1889" d="M-16.245-91.129h-6.71a1.283,1.283,0,0,1-.808-.225,1.164,1.164,0,0,1-.356-1.2l11.288-41.459a2.139,2.139,0,0,1,2.025-1.512h6.547a1.123,1.123,0,0,1,.947.366,1.263,1.263,0,0,1,.21,1.08L-14.227-92.643a2.129,2.129,0,0,1-2.018,1.514" transform="translate(24.159 135.526)" fill="#85cacd"/>
      </g>
      <g id="Group_1176" data-name="Group 1176" transform="translate(21.184 0.002)">
        <path id="Path_1890" data-name="Path 1890" d="M-16.238-68.279h-6.71a1.237,1.237,0,0,1-.841-.255,1.185,1.185,0,0,1-.319-1.176l8.212-30.32a2.128,2.128,0,0,1,2.018-1.514h6.546a1.076,1.076,0,0,1,1.013.452,1.34,1.34,0,0,1,.147,1l-8.055,30.3a2.117,2.117,0,0,1-2.011,1.515" transform="translate(24.149 101.544)" fill="#85cacd"/>
      </g>
      <g id="Group_1177" data-name="Group 1177" transform="translate(36.185 33.226)">
        <path id="Path_1891" data-name="Path 1891" d="M-24.678-2.931-26.789,5.3a2.143,2.143,0,0,1-2.026,1.512h-6.712a1.225,1.225,0,0,1-.834-.251A1.162,1.162,0,0,1-36.652,5.4l2.24-8.249a2.179,2.179,0,0,1,2.049-1.5h6.544a1.136,1.136,0,0,1,.936.351,1.256,1.256,0,0,1,.2,1.077" transform="translate(36.701 4.359)" fill="#85cacd"/>
      </g>
    </g>
  </g>
</svg>
